<svg width="241" height="239" viewBox="0 0 241 239" fill="none" xmlns="http://www.w3.org/2000/svg">
<g filter="url(#filter0_d_8021_217)">
<path d="M101.882 11.6907C101.883 12.7241 102.294 13.715 103.024 14.4457C103.755 15.1763 104.746 15.5871 105.779 15.5877H115.139C118.239 15.5877 121.213 16.8194 123.406 19.0118C125.598 21.2043 126.83 24.1779 126.83 27.2785C126.83 30.379 125.598 33.3526 123.406 35.5451C121.213 37.7375 118.239 38.9692 115.139 38.9692H94V31.1753H115.139C115.652 31.1779 116.161 31.0791 116.636 30.8844C117.111 30.6898 117.543 30.4031 117.907 30.041C118.271 29.6789 118.56 29.2484 118.757 28.7743C118.954 28.3002 119.056 27.7918 119.056 27.2784C119.056 26.765 118.954 26.2566 118.757 25.7825C118.56 25.3084 118.271 24.8779 117.907 24.5158C117.543 24.1537 117.111 23.867 116.636 23.6724C116.161 23.4777 115.652 23.3789 115.139 23.3815H105.779C102.679 23.3815 99.705 22.1498 97.5126 19.9574C95.3201 17.7649 94.0884 14.7913 94.0884 11.6907C94.0884 8.59017 95.3201 5.61658 97.5126 3.42414C99.705 1.2317 102.679 0 105.779 0H126.918V7.7938H105.779C104.746 7.7938 103.754 8.20437 103.024 8.93519C102.293 9.66601 101.882 10.6572 101.882 11.6907H101.882Z" fill="white"/>
</g>
<path opacity="0.47" d="M120.924 17.118L120.78 17.0374C118.323 18.1413 117.32 21.4394 119.241 23.752L125.923 31.7983C126.237 31.0694 126.467 30.3074 126.61 29.5267L124.792 23.1899L120.924 17.118Z" fill="black"/>
<g filter="url(#filter1_d_8021_217)">
<path d="M138.344 11.7591C138.307 13.9062 136.466 15.5876 134.318 15.5876H125.088L124.172 15.5985C120.531 15.6416 118.569 19.8881 120.895 22.6889L134.417 38.9691H146.227L132.144 23.2929L134.447 23.3814C136.093 23.3808 137.72 23.033 139.222 22.3606C140.724 21.6881 142.067 20.7063 143.164 19.4792C144.261 18.2521 145.086 16.8074 145.586 15.2395C146.086 13.6716 146.249 12.0159 146.065 10.3805C145.403 4.42637 140.223 0 134.233 0H113.309V7.79379H134.448C134.965 7.7938 135.478 7.89688 135.955 8.09702C136.432 8.29715 136.865 8.59034 137.227 8.95947C137.59 9.3286 137.876 9.76627 138.067 10.2469C138.259 10.7276 138.353 11.2417 138.344 11.7591H138.344Z" fill="white"/>
</g>
<defs>
<filter id="filter0_d_8021_217" x="0" y="0" width="220.918" height="238.969" filterUnits="userSpaceOnUse" color-interpolation-filters="sRGB">
<feFlood flood-opacity="0" result="BackgroundImageFix"/>
<feColorMatrix in="SourceAlpha" type="matrix" values="0 0 0 0 0 0 0 0 0 0 0 0 0 0 0 0 0 0 127 0" result="hardAlpha"/>
<feOffset dy="106"/>
<feGaussianBlur stdDeviation="47"/>
<feColorMatrix type="matrix" values="0 0 0 0 0.360784 0 0 0 0 0.509804 0 0 0 0 0.968627 0 0 0 0.078 0"/>
<feBlend mode="normal" in2="BackgroundImageFix" result="effect1_dropShadow_8021_217"/>
<feBlend mode="normal" in="SourceGraphic" in2="effect1_dropShadow_8021_217" result="shape"/>
</filter>
<filter id="filter1_d_8021_217" x="19.3086" y="0" width="220.918" height="238.969" filterUnits="userSpaceOnUse" color-interpolation-filters="sRGB">
<feFlood flood-opacity="0" result="BackgroundImageFix"/>
<feColorMatrix in="SourceAlpha" type="matrix" values="0 0 0 0 0 0 0 0 0 0 0 0 0 0 0 0 0 0 127 0" result="hardAlpha"/>
<feOffset dy="106"/>
<feGaussianBlur stdDeviation="47"/>
<feColorMatrix type="matrix" values="0 0 0 0 0.360784 0 0 0 0 0.509804 0 0 0 0 0.968627 0 0 0 0.078 0"/>
<feBlend mode="normal" in2="BackgroundImageFix" result="effect1_dropShadow_8021_217"/>
<feBlend mode="normal" in="SourceGraphic" in2="effect1_dropShadow_8021_217" result="shape"/>
</filter>
</defs>
</svg>
